<svg width="305" height="266" viewBox="0 0 305 266" fill="none" xmlns="http://www.w3.org/2000/svg">
<mask id="mask0_1649_3760" style="mask-type:alpha" maskUnits="userSpaceOnUse" x="3" y="178" width="302" height="88">
<path fill-rule="evenodd" clip-rule="evenodd" d="M3.3667 178.02H304.74V265.526H3.3667V178.02Z" fill="white"/>
</mask>
<g mask="url(#mask0_1649_3760)">
<path fill-rule="evenodd" clip-rule="evenodd" d="M33.5187 178.02C117.476 178.401 200.369 195.125 284.328 195.505C291.132 218.575 297.934 241.635 304.74 264.703C203.855 269.14 104.248 254.004 3.3667 258.438C13.4159 231.632 23.4681 204.824 33.5187 178.02Z" fill="#F7F8FC"/>
</g>
<path fill-rule="evenodd" clip-rule="evenodd" d="M77.8256 242.793C112.528 243.469 147.128 245.479 181.744 247.303C181.68 248.831 181.615 250.36 181.552 251.886C146.48 250.137 111.424 248.201 76.2612 247.609C76.7827 246.006 77.3042 244.399 77.8256 242.793Z" fill="#909697"/>
<path fill-rule="evenodd" clip-rule="evenodd" d="M66.6981 228.243C106.359 228.78 145.86 231.379 185.382 233.726C185.333 234.928 185.284 236.131 185.233 237.337C145.313 235.049 105.409 232.515 65.3491 232.06C65.7988 230.787 66.2484 229.516 66.6981 228.243Z" fill="#B7BEC0"/>
<path fill-rule="evenodd" clip-rule="evenodd" d="M84.7446 218.241C118.654 219.286 152.466 221.618 186.291 223.762C186.242 224.954 186.194 226.144 186.145 227.334C151.967 225.248 117.8 222.969 83.5359 221.99C83.9383 220.74 84.3422 219.49 84.7446 218.241Z" fill="#B7BEC0"/>
<path fill-rule="evenodd" clip-rule="evenodd" d="M73.964 208.238C111.493 209.16 148.882 211.711 186.291 214.05C186.241 215.143 186.193 216.237 186.144 217.331C148.339 215.049 110.551 212.554 72.6238 211.703C73.0706 210.547 73.5173 209.392 73.964 208.238Z" fill="#B7BEC0"/>
<path fill-rule="evenodd" clip-rule="evenodd" d="M163.041 200.963C170.791 201.981 178.54 203.018 186.291 204.038C186.245 206.038 186.197 208.046 186.153 210.057C178.316 209.064 170.484 208.046 162.648 207.053C162.779 205.022 162.91 202.992 163.041 200.963Z" fill="#B7BEC0"/>
<path fill-rule="evenodd" clip-rule="evenodd" d="M274.165 206.89C278.005 222.451 281.845 238.008 285.686 253.568C250.417 254.209 215.298 252.512 180.203 250.398C180.39 233.919 180.577 217.445 180.763 200.963C211.839 203.879 242.936 206.423 274.165 206.89Z" fill="#EF006F"/>
<path fill-rule="evenodd" clip-rule="evenodd" d="M224.866 229.284C227.156 228.204 229.428 227.114 231.68 226.026C231.744 226.004 231.757 225.988 231.788 225.988C231.788 226.004 231.8 226.043 231.806 226.096C232.086 228.541 232.363 230.98 232.643 233.419C232.651 233.494 232.644 233.509 232.646 233.522C232.646 233.522 232.598 233.509 232.529 233.491C229.961 232.148 227.411 230.797 224.879 229.434C224.813 229.412 224.785 229.37 224.77 229.348C224.78 229.343 224.805 229.326 224.866 229.284ZM230.312 239.142C236.465 239.424 240.859 235.378 240.143 230.128C239.433 224.909 234.123 220.435 228.264 220.082C222.423 219.726 218.003 223.686 218.423 228.98C218.844 234.298 224.18 238.858 230.312 239.142Z" fill="white"/>
<path fill-rule="evenodd" clip-rule="evenodd" d="M139.637 94.9208L75.9838 70.0189L125.493 96.3897L139.637 94.9208Z" fill="#E5E8EC"/>
<path fill-rule="evenodd" clip-rule="evenodd" d="M117.978 110.03L74.1651 70.9282L122.36 97.8515L117.978 110.03Z" fill="#CDD5D7"/>
<path fill-rule="evenodd" clip-rule="evenodd" d="M120.541 110.03L75.9838 70.9282L114.813 100.414L120.541 110.03Z" fill="#B7BEC0"/>
<path fill-rule="evenodd" clip-rule="evenodd" d="M94.3047 111.848L75.0745 67.2909L114.176 96.9969L94.3047 111.848Z" fill="#E5E8EC"/>
<path fill-rule="evenodd" clip-rule="evenodd" d="M0.786255 185.7C32.029 173.697 74.5356 174.771 105.778 162.771C124.736 180.011 143.692 197.252 162.648 214.495C128.597 232.782 81.0596 235.416 47.0051 253.705C31.6004 231.039 16.1925 208.369 0.786255 185.7Z" fill="#E4EEF3"/>
<path fill-rule="evenodd" clip-rule="evenodd" d="M104.301 170.955C118.596 184.396 132.893 197.828 147.189 211.264C117.318 224.393 79.1531 227.909 49.2275 240.974C37.324 224.059 25.422 207.144 13.517 190.228C41.4096 181.057 76.4587 180.184 104.301 170.955Z" fill="#7AC286"/>
<path fill-rule="evenodd" clip-rule="evenodd" d="M102.258 201.941C101.422 202.209 101.195 203.209 101.745 204.181C102.296 205.152 103.429 205.72 104.269 205.437C105.11 205.162 105.333 204.151 104.778 203.194C104.221 202.23 103.094 201.67 102.258 201.941Z" fill="white"/>
<path fill-rule="evenodd" clip-rule="evenodd" d="M108.979 207.756C101.649 209.423 94.2327 210.991 86.9085 212.659C84.3369 209.468 81.7682 206.273 79.1981 203.083C82.387 204.429 85.6001 205.756 88.8312 207.074C89.3097 204.688 89.776 202.333 90.2197 200.004C92.0172 200.802 93.8191 201.6 95.6241 202.389C95.8445 200.139 96.0452 197.917 96.2233 195.705C96.8209 195.59 97.4201 195.466 98.0192 195.345C101.673 199.481 105.324 203.62 108.979 207.756ZM99.1436 191.87C89.6719 193.809 79.9995 195.511 70.5278 197.451C75.5398 203.777 80.5549 210.1 85.5654 216.422C95.3329 214.081 105.316 211.986 115.085 209.648C109.771 203.722 104.458 197.801 99.1436 191.87Z" fill="white"/>
<path fill-rule="evenodd" clip-rule="evenodd" d="M199.931 66.3406C200.809 64.7931 202.051 63.444 203.624 62.4641C208.564 59.3795 214.855 61.0788 217.671 66.2578C220.491 71.4402 218.77 78.1339 213.83 81.2168C208.996 84.2307 202.881 82.6591 199.978 77.7389C201.541 74.1971 201.62 70.0152 199.931 66.3406Z" fill="#282723"/>
<path fill-rule="evenodd" clip-rule="evenodd" d="M207.332 73.9518C206.438 73.106 203.584 74.2135 202.302 75.5348C195.821 82.2099 186.291 94.4033 186.291 94.4033C186.291 94.4033 188.954 99.3374 190.261 97.9683C192.908 95.1964 198.994 92.8554 206.009 82.0009C208.035 78.8668 208.846 75.38 207.332 73.9518Z" fill="#B0BFDE"/>
<path fill-rule="evenodd" clip-rule="evenodd" d="M184.016 121.851C184.016 121.851 183.351 124.486 183.632 125.825C183.831 126.76 185.298 130.944 185.298 130.944C185.298 130.944 185.609 129.273 185.029 127.592C184.169 125.129 184.016 121.851 184.016 121.851Z" fill="#E2C59C"/>
<path fill-rule="evenodd" clip-rule="evenodd" d="M184.636 126.294C184.239 127.57 184.483 129.157 185.073 130.918C185.629 132.594 185.263 133.672 185.263 133.672C185.263 133.672 184.826 132.652 184.143 129.912C183.952 129.148 183.781 128.353 183.629 127.573C183.128 125.001 185.659 123.014 184.636 126.294Z" fill="#E2C59C"/>
<path fill-rule="evenodd" clip-rule="evenodd" d="M186.153 111.838C184.04 115.056 181.52 118.715 181.395 120.782C181.212 123.718 182.923 125.295 181.722 127.148C181.593 127.35 181.529 127.568 181.431 127.782C181.179 128.354 180.749 128.959 180.693 129.204C180.615 129.484 180.542 130.286 180.394 129.958C179.043 127.047 177.929 123.697 178.131 122.969C178.54 121.473 181.311 113.274 183.219 110.377C185.368 107.113 189.002 107.49 186.153 111.838Z" fill="#E9D6B8"/>
<path fill-rule="evenodd" clip-rule="evenodd" d="M180.732 124.682C180.732 124.682 180.01 124.336 179.727 124.912C179.259 125.86 179.13 128.012 179.119 128.779C179.106 129.631 179.67 133.672 179.67 133.672C179.67 133.672 180.427 132.38 180.205 130.753C179.879 128.383 180.732 124.682 180.732 124.682Z" fill="#E9D6B8"/>
<path fill-rule="evenodd" clip-rule="evenodd" d="M183.562 106.069C185.304 104.952 188.205 99.3252 189.019 100.1C188.156 106.782 179.926 121.851 179.926 121.851L183.562 106.069Z" fill="#E9D6B8"/>
<path fill-rule="evenodd" clip-rule="evenodd" d="M189.97 115.423C188.239 115.734 186.859 114.831 185.382 114.059C186.096 109.553 188.466 99.6776 190.89 95.8371C192.893 92.666 194.137 91.096 194.462 95.3241C194.616 97.3373 193.373 103.351 192.539 106.838C191.78 110.018 191.262 113.451 189.97 115.423Z" fill="#B0BFDE"/>
<path fill-rule="evenodd" clip-rule="evenodd" d="M211.353 60.9101C211.973 60.5495 212.612 60.2577 213.259 60.0162C213.492 60.6687 213.778 61.3135 214.137 61.9323C217.021 66.8982 223.064 68.8815 228.36 66.9104C230.224 72.1269 228.114 78.1472 223.072 81.0946C217.4 84.4134 210.179 82.5844 206.943 77.0088C203.706 71.4348 205.682 64.2273 211.353 60.9101Z" fill="#282723"/>
<path fill-rule="evenodd" clip-rule="evenodd" d="M219.027 73.1089C219.027 73.1089 216.299 82.0012 211.165 84.1148C206.033 86.2301 203.221 85.6735 202.002 83.8754C200.784 82.0805 199.693 78.3098 200.703 77.1095C201.709 75.9124 202.691 74.7168 203.354 72.7125C203.895 71.0809 203.012 68.4424 201.916 66.4794C200.821 64.5164 198.942 64.7225 200.564 63.408C202.189 62.0935 201.195 61.2674 203.107 61.1977C205.017 61.1295 205.953 60.3081 206.32 61.9001C206.991 64.8082 207.67 68.9419 209.906 70.4768C212.386 72.1829 214.492 72.4462 219.027 73.1089Z" fill="#E9D6B8"/>
<path fill-rule="evenodd" clip-rule="evenodd" d="M205.054 85.6888C204.952 82.2262 202.649 79.99 203.983 76.695C204.273 75.9811 204.889 75.8543 204.985 75.2249C207.194 83.0077 215.812 76.8541 214.638 73.6562C216.604 74.9757 221.332 75.6389 221.415 75.967C222.316 79.5549 222.908 83.209 223.777 86.8054C224.155 88.336 223.688 89.9244 222.973 91.1284C223.105 91.3903 223.22 91.6747 223.298 91.9873L223.856 93.7053C224.211 95.1444 227.977 99.5265 227.071 99.7828L214.421 101.846C213.689 101.271 212.815 100.07 211.387 97.8578C210.526 96.5187 207.826 92.5802 207.826 92.5802C207.794 92.4548 207.778 92.3309 207.758 92.207C206.507 91.1579 205.096 87.4405 205.054 85.6888Z" fill="white"/>
<path fill-rule="evenodd" clip-rule="evenodd" d="M211.853 73.3335C211.853 73.3335 218.221 71.7283 220.517 73.829C223.558 76.6102 223.878 80.0761 224.06 82.3929C224.271 85.0837 225.343 88.4395 225.494 91.9365C225.676 96.1817 230.839 99.0886 229.802 98.5733C229.591 98.4702 223.358 99.5488 219.747 98.9192C216.133 98.2839 216.866 93.3638 216.722 91.825C216.396 88.3478 210.972 82.3378 210.853 79.534C210.728 76.5551 211.853 73.3335 211.853 73.3335Z" fill="#B0BFDE"/>
<path fill-rule="evenodd" clip-rule="evenodd" d="M204.487 80.6897C204.422 79.6066 204.695 78.3288 205.115 76.7495C205.46 75.4558 207.349 73.4425 207.025 73.6747C206.978 73.7093 204.917 75.8351 207.468 85.4014C207.903 87.034 209.768 90.6021 210.853 92.9933C211.939 95.3845 213.571 99.9621 213.571 99.9621C213.571 99.9621 211.51 101.367 211.51 101.813C211.511 102.257 211.207 98.1507 209.583 94.8105C205.678 86.7802 204.777 85.4851 204.487 80.6897Z" fill="#B0BFDE"/>
<path fill-rule="evenodd" clip-rule="evenodd" d="M200.657 1.02992L199.931 7.36288L208.285 9.09337L209.014 2.75874C209.089 2.09038 208.742 1.46667 208.236 1.36245L201.712 0.0157831C201.207 -0.0917516 200.733 0.361549 200.657 1.02992Z" fill="#FF876C"/>
<path fill-rule="evenodd" clip-rule="evenodd" d="M202.361 0.62277L200.84 8.19971L208.399 9.09337L209.922 1.51441C210.004 1.11499 209.639 0.739773 209.106 0.677237L203.464 0.00749717C202.936 -0.0489869 202.44 0.219312 202.361 0.62277Z" fill="#FFA38F"/>
<path fill-rule="evenodd" clip-rule="evenodd" d="M206.296 11.3574L208.935 11.8214L209.92 4.57056C210.022 3.80552 209.552 3.09161 208.868 2.97231L207.468 2.72803L206.296 11.3574Z" fill="#FFA38F"/>
<path fill-rule="evenodd" clip-rule="evenodd" d="M196.722 28.1895L172.651 192.779C173.885 192.785 174.969 191.983 175.295 190.795L199.022 28.5655L196.722 28.1895Z" fill="#CDD5D7"/>
<path fill-rule="evenodd" clip-rule="evenodd" d="M203.568 27.258L197.776 26.3707L172.651 188.989C172.65 189.002 172.653 189.014 172.653 189.023C172.653 189.014 172.662 189 172.661 188.992C172.625 190.369 173.692 191.599 175.178 191.834C176.664 192.06 178.048 191.202 178.431 189.881C178.431 189.889 178.43 189.904 178.434 189.91C178.434 189.906 178.442 189.89 178.443 189.884L203.568 27.258Z" fill="#E5E8EC"/>
<path fill-rule="evenodd" clip-rule="evenodd" d="M179.926 190.952C179.901 192.189 180.715 193.305 181.904 193.689L206.296 28.5668L203.969 28.1895L179.926 190.952Z" fill="#CDD5D7"/>
<path fill-rule="evenodd" clip-rule="evenodd" d="M184.472 195.482C183.409 195.104 182.683 193.989 182.705 192.761C182.702 192.767 182.697 192.781 182.696 192.785C182.693 192.781 182.693 192.765 182.694 192.758C182.366 194.071 181.187 194.927 179.922 194.699C178.656 194.468 177.746 193.241 177.776 191.873C177.778 191.881 177.771 191.893 177.77 191.902C177.771 191.893 177.767 191.882 177.769 191.87C177.472 193.055 176.493 193.86 175.379 193.85L177.054 216.422L184.472 195.482Z" fill="#E5E8EC"/>
<path fill-rule="evenodd" clip-rule="evenodd" d="M184.472 194.696C183.17 194.304 182.279 193.147 182.306 191.873C182.303 191.879 182.296 191.894 182.295 191.898C182.291 191.894 182.291 191.878 182.293 191.87C181.891 193.233 175.379 216.422 175.379 216.422L184.472 194.696Z" fill="#CDD5D7"/>
<path fill-rule="evenodd" clip-rule="evenodd" d="M199.022 26.4881L208.162 28.1895L210.843 7.15905L201.703 5.45605L199.022 26.4881Z" fill="#F0CA67"/>
<path fill-rule="evenodd" clip-rule="evenodd" d="M199.022 27.8351L202.752 28.1894L208.115 6.72133L204.379 6.36536L199.022 27.8351Z" fill="#F4DA80"/>
<path fill-rule="evenodd" clip-rule="evenodd" d="M178.107 207.046C177.559 206.845 176.998 206.678 176.413 206.571C175.761 206.455 175.112 206.416 174.47 206.42L175.138 215.513L178.107 207.046Z" fill="#C9C8B6"/>
<path fill-rule="evenodd" clip-rule="evenodd" d="M199.687 21.9488L199.163 25.4614L198.356 25.333L198.883 21.8241L199.687 21.9488Z" fill="#F4DA80"/>
<path fill-rule="evenodd" clip-rule="evenodd" d="M199.688 22.86L199.159 26.3707L198.355 26.246L198.883 22.7334L199.688 22.86Z" fill="#F4DA80"/>
<path fill-rule="evenodd" clip-rule="evenodd" d="M199.688 22.8618L199.163 26.3707L198.355 26.2423L198.881 22.7334L199.688 22.8618Z" fill="#F0CA67"/>
<path fill-rule="evenodd" clip-rule="evenodd" d="M204.236 22.8599L203.708 26.3707L202.901 26.2424L203.428 22.7334L204.236 22.8599Z" fill="#F0CA67"/>
<path fill-rule="evenodd" clip-rule="evenodd" d="M206.054 22.8618L205.523 26.3707L204.72 26.2386L205.251 22.7334L206.054 22.8618Z" fill="#F4DA80"/>
<path fill-rule="evenodd" clip-rule="evenodd" d="M206.054 22.8619L205.525 26.3707L204.72 26.2422L205.249 22.7334L206.054 22.8619Z" fill="#F4DA80"/>
<path fill-rule="evenodd" clip-rule="evenodd" d="M207.871 22.8582L207.344 26.3707L206.54 26.2422L207.069 22.7334L207.871 22.8582Z" fill="#F4DA80"/>
<path fill-rule="evenodd" clip-rule="evenodd" d="M199.686 8.31252L199.157 11.8214L198.357 11.6911L198.884 8.18408L199.686 8.31252Z" fill="#F4DA80"/>
<path fill-rule="evenodd" clip-rule="evenodd" d="M204.236 8.31079L203.706 11.8214L202.901 11.6947L203.43 8.18408L204.236 8.31079Z" fill="#F4DA80"/>
<path fill-rule="evenodd" clip-rule="evenodd" d="M204.236 8.31252L203.705 11.8214L202.901 11.6911L203.426 8.18408L204.236 8.31252Z" fill="#F0CA67"/>
<path fill-rule="evenodd" clip-rule="evenodd" d="M206.054 8.31073L205.525 11.8214L204.72 11.6966L205.249 8.18408L206.054 8.31073Z" fill="#F0CA67"/>
<path fill-rule="evenodd" clip-rule="evenodd" d="M206.053 8.31252L205.523 11.8214L204.721 11.693L205.249 8.18408L206.053 8.31252Z" fill="#F4DA80"/>
<path fill-rule="evenodd" clip-rule="evenodd" d="M207.872 8.307L207.343 11.8214L206.539 11.6929L207.067 8.18408L207.872 8.307Z" fill="#F4DA80"/>
<path fill-rule="evenodd" clip-rule="evenodd" d="M210.6 10.1293L210.069 13.64L209.267 13.5115L209.795 10.0027L210.6 10.1293Z" fill="#F4DA80"/>
<path fill-rule="evenodd" clip-rule="evenodd" d="M220.479 72.4701C220.12 71.3061 219.25 70.4577 217.534 70.0628C212.994 69.0194 211.752 86.9138 211.752 86.9138C211.752 86.9138 212.564 95.2187 213.747 94.5305C218.22 91.9297 217.832 91.2542 220.016 82.3054C220.946 78.4899 221.085 74.4429 220.479 72.4701Z" fill="#B0BFDE"/>
<path fill-rule="evenodd" clip-rule="evenodd" d="M200.736 88.5585C200.736 88.5585 197.511 85.7101 197.28 85.35C197.046 84.9898 197.13 84.6677 196.937 83.714C196.745 82.7561 196.669 82.5915 196.477 81.8488C196.286 81.1019 196.246 81.0245 196.246 81.0245C196.246 81.0245 195.89 81.1989 195.903 81.5112C195.913 81.7897 196.077 82.4199 196.079 82.6562C196.08 82.8939 195.933 82.1301 195.444 81.1159C194.956 80.1003 194.357 79.1733 194.077 78.7921C193.901 78.5502 193.872 78.5192 193.858 78.5277C193.744 78.5839 193.642 78.6458 193.671 78.7837C193.696 78.9033 193.88 79.2929 193.854 79.276C193.754 79.2155 193.323 78.6824 193.255 78.5854C193.186 78.4827 193.094 78.342 193.029 78.2618C192.889 78.0972 192.717 78.2914 192.764 78.6697C192.765 78.6754 192.647 78.8189 192.657 78.937C192.659 78.9947 192.663 79.0383 192.669 79.1002C192.678 79.1649 192.705 79.238 192.716 79.3027C192.759 79.5531 192.82 79.7951 192.893 80.0201C192.925 80.1102 193.286 80.8698 193.242 80.8909C193.236 80.8965 192.876 80.3338 192.837 80.3676C192.752 80.4393 192.682 80.6137 192.734 80.7192C192.829 80.912 192.965 81.2031 193.382 81.9796C193.839 82.8391 193.996 82.9882 194.328 84.2176C194.616 85.2881 194.896 85.5399 195.535 85.9914C197.734 87.5415 200.953 91.3367 201.591 91.8023C202.229 92.2693 200.736 88.5585 200.736 88.5585Z" fill="#E9D6B8"/>
<path fill-rule="evenodd" clip-rule="evenodd" d="M198.112 87.1747C198.873 85.6854 200.13 85.4451 201.723 84.5684C205.368 86.8286 210.919 87.0058 215.778 88.3798C217.511 88.8687 220.744 90.3735 219.751 91.4263C218.55 92.6992 215.389 94.687 210.718 93.0322C207.884 92.0294 198.545 87.2985 198.112 87.1747Z" fill="#B0BFDE"/>
<path fill-rule="evenodd" clip-rule="evenodd" d="M207.96 61.3226C211.23 60.5889 213.225 66.0858 215.83 63.6905C216.336 61.9119 216.456 59.9539 216.074 57.9685C214.934 52.0288 209.833 48.1531 204.687 49.3078C199.537 50.4624 196.289 56.2118 197.432 62.1497C197.999 65.1068 199.551 67.5533 201.598 69.1197C207.996 75.7182 204.026 62.2046 207.96 61.3226Z" fill="#282723"/>
<path fill-rule="evenodd" clip-rule="evenodd" d="M202.109 58.3396C202.232 58.2875 202.359 58.2413 202.49 58.1975C203.096 59.4298 204.744 60.7308 206.998 61.5938C207.544 61.8021 208.093 61.9679 208.633 62.1028L208.942 63.302C209.398 65.0777 207.906 66.8309 205.611 67.2156C203.313 67.6003 201.081 66.4722 200.624 64.6965L199.931 61.9927C200.915 61.1866 201.721 59.8868 202.109 58.3396Z" fill="#E9D6B8"/>
<path fill-rule="evenodd" clip-rule="evenodd" d="M220.053 212.356C220.053 212.356 220.907 211.815 223.288 211.104C224.68 210.686 225.742 210.654 226.229 209.922C227.033 208.706 226.726 204.561 226.914 204.601C228.918 205.067 229.544 213.543 228.596 213.63C227.307 213.749 220.906 213.672 220.368 213.638C219.832 213.602 219.884 212.194 220.053 212.356Z" fill="#E2C59C"/>
<path fill-rule="evenodd" clip-rule="evenodd" d="M223.463 155.704C224.267 156.487 227.249 158.586 228.051 161.207C229.633 166.347 230.144 169.022 229.868 174.421C229.426 182.982 228.435 196.66 227.934 202.423C227.484 207.615 228.723 213.989 224.746 212.588C226.63 205.627 224.688 194.577 223.855 188.678C218.162 148.423 222.033 154.309 223.463 155.704Z" fill="#E2C59C"/>
<path fill-rule="evenodd" clip-rule="evenodd" d="M221.504 211.132C221.19 212.324 225.77 211.74 226.948 211.404C228.073 211.085 228.794 210.975 228.794 210.975C228.844 210.974 228.888 210.968 228.936 210.966C228.942 210.993 228.955 211.022 228.956 211.051C228.98 211.7 229.374 212.556 228.06 212.585L219.819 212.775C213.084 212.93 221.51 211.105 221.504 211.132Z" fill="#B0BFDE"/>
<path fill-rule="evenodd" clip-rule="evenodd" d="M221.19 101.977C222.659 101.368 222.805 102.881 224.17 106.554C226.849 113.758 228.872 124.614 229.009 136.385C229.17 150.177 228.381 164.101 226.499 171.865C224.079 166.639 222.091 161.901 220.07 150.029C215.595 123.735 216.674 103.841 221.19 101.977Z" fill="#E2C59C"/>
<path fill-rule="evenodd" clip-rule="evenodd" d="M220.257 104.668C221.576 104.204 221.666 105.447 222.781 108.486C224.966 114.447 226.476 123.388 226.286 133.034C226.064 144.332 224.878 156.942 222.292 157.313C221.3 157.456 220.258 149.124 219.345 142.143C216.502 120.431 216.2 106.092 220.257 104.668Z" fill="#E9D6B8"/>
<path fill-rule="evenodd" clip-rule="evenodd" d="M224.817 214.018C224.817 214.018 225.793 213.604 228.01 212.799C229.566 212.232 230.333 211.883 230.649 211.126C231.168 209.873 230.629 206.472 231.051 206.426C233.111 206.194 234.183 212.301 233.764 213.33C233.214 214.683 226.549 215.903 225.475 215.395C224.969 215.157 224.618 213.943 224.817 214.018Z" fill="#E9D6B8"/>
<path fill-rule="evenodd" clip-rule="evenodd" d="M222.081 160.138C222.859 159.609 221.766 155.623 223.481 158.144C226.276 162.254 229.071 171.958 229.807 177.293C230.976 185.748 232.967 199.164 233.6 204.897C234.169 210.063 236.213 216.043 232.989 215.475C232.63 208.155 230 197.786 228.14 192.286C221.791 173.507 219.693 161.756 222.081 160.138Z" fill="#E9D6B8"/>
<path fill-rule="evenodd" clip-rule="evenodd" d="M227.341 212.428C229.286 216.049 232.625 212.566 233.703 211.417C235.552 209.455 235.382 208.173 235.394 208.241C235.641 209.793 236.028 212.068 234.976 213.462C234.021 214.723 232.907 214.853 231.685 215.451C230.589 215.987 224.161 218.436 223.88 216.745C223.482 214.361 227.316 212.378 227.341 212.428Z" fill="#B0BFDE"/>
<path fill-rule="evenodd" clip-rule="evenodd" d="M212.656 104.71C214.036 104.113 214.211 105.48 215.602 108.77C218.332 115.223 220.533 125.016 220.966 135.701C221.474 148.22 220.72 159.297 219.133 166.409C216.7 161.739 215.052 159.1 212.827 148.385C207.9 124.653 208.413 106.551 212.656 104.71Z" fill="#E9D6B8"/>
<path fill-rule="evenodd" clip-rule="evenodd" d="M216.017 151.964C216.947 151.349 219.015 153.541 220.605 155.727C223.717 160.006 225.284 165.528 227.387 173.163C229.849 182.103 231.129 190.176 231.126 195.507C228.646 191.742 226.428 186.784 223.493 181.713C205.756 151.062 213.154 153.852 216.017 151.964Z" fill="#E9D6B8"/>
<path fill-rule="evenodd" clip-rule="evenodd" d="M213.738 104.697C214.982 104.135 215.098 105.497 216.238 108.794C218.472 115.259 220.14 125.024 220.209 135.633C220.273 145.554 219.65 154.543 218.571 161.338C218.298 163.053 216.896 163.267 216.553 161.775C215.467 157.072 214.637 151.716 213.838 145.922C210.571 122.17 209.912 106.422 213.738 104.697Z" fill="#E9D6B8"/>
<path fill-rule="evenodd" clip-rule="evenodd" d="M204.427 151.326C204.074 150.595 203.793 149.876 203.596 149.211C201.897 141.675 198.152 134.694 199.642 107.456C199.689 106.006 200.119 103.677 200.402 102.41C203.769 99.5632 209.914 101.513 213.623 99.1177C215.38 100.082 216.985 100.992 219.165 103.273C232.052 116.766 231.256 139.758 233.854 147.763C224.937 151.158 214.871 152.778 204.427 151.326Z" fill="#163F59"/>
<path fill-rule="evenodd" clip-rule="evenodd" d="M215.503 103.609C215.534 103.725 216.291 103.654 217.195 103.447L227.444 101.113C228.349 100.909 229.058 100.646 229.029 100.528L228.916 100.084C228.887 99.9656 228.128 100.038 227.222 100.243L216.978 102.578C216.072 102.783 215.363 103.047 215.39 103.163L215.503 103.609Z" fill="#15100C"/>
<path fill-rule="evenodd" clip-rule="evenodd" d="M181.429 121.253C182.403 121.81 182.214 123.126 183.04 123.377C185.422 124.108 187.223 124.192 187.2 124.203C184.737 125.214 181.056 123.868 178.972 123.844C176.89 123.817 178.906 119.817 181.429 121.253Z" fill="#E9D6B8"/>
</svg>
