<svg width="99" height="99" viewBox="0 0 99 99" fill="none" xmlns="http://www.w3.org/2000/svg">
<path d="M90.75 49.5C90.75 72.2817 72.2817 90.75 49.5 90.75C26.7183 90.75 8.25 72.2817 8.25 49.5C8.25 26.7183 26.7183 8.25 49.5 8.25C72.2817 8.25 90.75 26.7183 90.75 49.5ZM22.6875 49.5C22.6875 64.3081 34.6919 76.3125 49.5 76.3125C64.3081 76.3125 76.3125 64.3081 76.3125 49.5C76.3125 34.6919 64.3081 22.6875 49.5 22.6875C34.6919 22.6875 22.6875 34.6919 22.6875 49.5Z" fill="url(#paint0_angular_1649_3759)"/>
<path d="M49.5 8.25013C54.917 8.25013 60.281 9.31709 65.2857 11.3901C70.2904 13.4631 74.8377 16.5016 78.6681 20.332C82.4986 24.1624 85.537 28.7098 87.61 33.7144C89.683 38.7191 90.75 44.0831 90.75 49.5001L76.3125 49.5001C76.3125 45.9791 75.619 42.4925 74.2715 39.2394C72.9241 35.9864 70.9491 33.0306 68.4593 30.5408C65.9695 28.0511 63.0137 26.0761 59.7607 24.7286C56.5076 23.3812 53.0211 22.6876 49.5 22.6876L49.5 8.25013Z" fill="url(#paint1_angular_1649_3759)"/>
<defs>
<radialGradient id="paint0_angular_1649_3759" cx="0" cy="0" r="1" gradientUnits="userSpaceOnUse" gradientTransform="translate(49.5 49.5) scale(41.25)">
<stop offset="0.9999" stop-color="white"/>
<stop offset="1" stop-color="#00AFAA" stop-opacity="0.01"/>
</radialGradient>
<radialGradient id="paint1_angular_1649_3759" cx="0" cy="0" r="1" gradientUnits="userSpaceOnUse" gradientTransform="translate(49.5 49.5001) rotate(-90) scale(41.25)">
<stop offset="0.9999" stop-color="white"/>
<stop offset="1" stop-color="#00AFAA" stop-opacity="0.01"/>
</radialGradient>
</defs>
</svg>
